#!OML:ASF H:\Terrain\Patient Classification 1\Terrain2\Thursday\justin.ASF
:FULLY-SPECIFIED
:DEGREES
3973
root 30.4543 17.5088 -10.7152 1801.9 1.81818 357.274
lowerback 4.39273 -1.51666 -1.2208
upperback 1.4458 -2.02964 3.73814
thorax -0.795546 -1.02597 4.64273
lowerneck -14.1998 -3.07562 -10.0055
upperneck 36.2354 -3.19784 4.37194
head 15.3376 -2.14984 3.07411
rclavicle 5.56597e-015 3.65764e-014
rhumerus -39.948 -28.7235 -66.76
rradius 20.0167
rwrist -3.46795
rhand -23.6183 14.2555
rfingers 7.12502
rthumb 2.846 -15.7053
lclavicle 5.56597e-015 3.65764e-014
lhumerus -27.4063 7.23246 77.1469
lradius 37.9683
lwrist 9.17418
lhand -19.4233 21.6515
lfingers 7.12502
lthumb 6.89649 51.5191
rfemur -14.2309 -8.02483 26.5709
rtibia 36.0089
rfoot -22.5419 -0.900272
rtoes 11.6212
lfemur -4.43443 -2.42045 -16.1914
ltibia 26.1625
lfoot -20.655 -8.48679
ltoes 2.00601
3974
root 30.4469 17.5025 -10.6944 1802.07 1.79088 357.255
lowerback 4.36502 -1.63753 -1.24125
upperback 1.38397 -2.18961 3.84224
thorax -0.824357 -1.10532 4.77058
lowerneck -14.0018 -2.97209 -10.2429
upperneck 36.0455 -3.04499 4.51715
head 15.1915 -2.09618 3.19927
rclavicle -3.35946e-014 5.56597e-015
rhumerus -39.7888 -28.386 -66.9344
rradius 20.2042
rwrist -3.59119
rhand -23.3156 15.0959
rfingers 7.12502
rthumb 3.13829 -14.8607
lclavicle -3.35946e-014 5.56597e-015
lhumerus -27.7887 7.21138 77.5906
lradius 38.3419
lwrist 8.60166
lhand -18.8876 21.6815
lfingers 7.12502
lthumb 7.41367 51.5316
rfemur -14.255 -8.05833 26.6352
rtibia 35.7656
rfoot -22.505 -0.731709
rtoes 11.7018
lfemur -4.71789 -2.65214 -16.1912
ltibia 26.5138
lfoot -20.8062 -8.00812
ltoes 1.05978
3975
root 30.4382 17.4979 -10.6674 1802.17 1.73811 356.904
lowerback 4.3129 -1.66078 -0.775344
upperback 1.45815 -2.20262 3.89146
thorax -0.733763 -1.11339 4.55458
lowerneck -14.0169 -2.96945 -10.3093
upperneck 35.7493 -3.10451 4.76278
head 15.0623 -2.08981 3.29695
rclavicle 2.11706e-014 -1.74931e-014
rhumerus -39.5697 -28.4294 -67.2877
rradius 20.5565
rwrist -3.86554
rhand -23.21 14.9142
rfingers 7.12502
rthumb 3.24032 -15.0409
lclavicle 2.11706e-014 -1.74931e-014
lhumerus -27.7689 6.83919 77.9831
lradius 38.5212
lwrist 7.97634
lhand -19.5793 22.9369
lfingers 7.12502
lthumb 6.74598 52.8094
rfemur -14.1483 -8.02341 27.0879
rtibia 35.4973
rfoot -22.4051 -0.838808
rtoes 11.4264
lfemur -4.94822 -2.72955 -15.8019
ltibia 26.9269
lfoot -20.9775 -7.55036
ltoes -0.958883
3976
root 30.4281 17.4987 -10.6385 1802.19 1.66008 356.47
lowerback 4.27907 -1.65832 -0.198742
upperback 1.54266 -2.17799 3.90738
thorax -0.651394 -1.10143 4.24045
lowerneck -14.2848 -2.9755 -10.0347
upperneck 35.7688 -3.15948 4.73725
head 15.1306 -2.07745 3.22832
rclavicle -3.02153e-014 3.18055e-015
rhumerus -39.4073 -28.354 -67.7882
rradius 20.9291
rwrist -4.35954
rhand -23.5214 13.9048
rfingers 7.12502
rthumb 2.9396 -16.0547
lclavicle -3.02153e-014 3.18055e-015
lhumerus -27.6818 6.3219 78.3036
lradius 38.5596
lwrist 7.33265
lhand -20.0465 23.7726
lfingers 7.12502
lthumb 6.2949 53.659
rfemur -13.9289 -7.97925 27.6184
rtibia 35.21
rfoot -22.3175 -0.934354
rtoes 11.3289
lfemur -5.1031 -2.65128 -15.2948
ltibia 27.3764
lfoot -21.0545 -7.3733
ltoes -2.12439
3977
root 30.4155 17.5024 -10.6099 1802.14 1.56335 356.465
lowerback 4.40251 -1.69395 -0.249398
upperback 1.56613 -2.22554 3.95714
thorax -0.688559 -1.1255 4.32712
lowerneck -14.303 -2.93677 -10.1407
upperneck 35.8371 -3.0942 4.80294
head 15.165 -2.05763 3.2883
rclavicle -3.79679e-014 2.14687e-014
rhumerus -39.201 -27.8913 -68.1736
rradius 21.14
rwrist -4.89971
rhand -23.9086 13.6584
rfingers 7.12502
rthumb 2.5656 -16.3059
lclavicle -3.79679e-014 2.14687e-014
lhumerus -27.8102 6.15388 78.7489
lradius 38.6344
lwrist 6.67441
lhand -19.3895 24.0309
lfingers 7.12502
lthumb 6.92914 53.8975
rfemur -13.5721 -7.83822 27.6676
rtibia 34.9177
rfoot -22.3138 -0.90829
rtoes 11.2569
lfemur -5.17711 -2.51056 -15.249
ltibia 27.8792
lfoot -21.1097 -7.33995
ltoes -2.46735
3978
root 30.4016 17.5075 -10.5814 1802.11 1.45587 356.647
lowerback 4.67689 -1.72795 -0.589023
upperback 1.50261 -2.27835 4.03277
thorax -0.886269 -1.14996 4.61283
lowerneck -14.2151 -2.93119 -10.4661
upperneck 35.9151 -3.05196 4.94402
head 15.1899 -2.069 3.41598
rclavicle -1.17283e-014 1.35174e-014
rhumerus -39.0131 -27.364 -68.389
rradius 21.266
rwrist -5.25663
rhand -23.7093 14.8912
rfingers 7.12502
rthumb 2.75809 -15.0707
lclavicle -1.17283e-014 1.35174e-014
lhumerus -28.1563 6.03396 79.2411
lradius 38.8589
lwrist 6.04558
lhand -17.7093 25.2631
lfingers 7.12502
lthumb 8.55084 55.07
rfemur -13.243 -7.69543 27.5047
rtibia 34.6373
rfoot -22.391 -0.755863
rtoes 11.4528
lfemur -5.26058 -2.69207 -15.4695
ltibia 28.4294
lfoot -21.2075 -6.7765
ltoes -3.80664
3979
root 30.388 17.5072 -10.5558 1802.11 1.35309 356.516
lowerback 4.86873 -1.71877 -0.488294
upperback 1.47609 -2.25639 4.08846
thorax -1.02419 -1.13679 4.62093
lowerneck -14.4594 -2.95844 -10.3518
upperneck 36.1347 -3.07147 4.84985
head 15.3521 -2.0784 3.3588
rclavicle 2.40529e-014 -2.06736e-014
rhumerus -38.9239 -27.0878 -68.6703
rradius 21.6699
rwrist -5.53326
rhand -23.2998 15.5201
rfingers 7.12502
rthumb 3.15356 -14.4364
lclavicle 2.40529e-014 -2.06736e-014
lhumerus -28.4217 5.44585 79.6658
lradius 39.0219
lwrist 5.58412
lhand -16.0076 26.7032
lfingers 7.12502
lthumb 10.1929 56.4363
rfemur -12.9973 -7.64112 27.6776
rtibia 34.3645
rfoot -22.4098 -0.548659
rtoes 12.2864
lfemur -5.40887 -2.911 -15.3558
ltibia 29.0269
lfoot -21.2878 -6.10422
ltoes -5.86857
3980
root 30.3742 17.5035 -10.5308 1802.07 1.26735 356.352
lowerback 4.90387 -1.70397 -0.312574
upperback 1.55331 -2.22947 4.1209
thorax -0.972029 -1.12474 4.55335
lowerneck -14.5818 -2.9555 -10.1935
upperneck 36.1202 -3.07805 4.78362
head 15.3686 -2.0668 3.30046
rclavicle 4.57205e-015 -1.19271e-014
rhumerus -38.7658 -26.8228 -69.0694
rradius 22.1786
rwrist -5.93493
rhand -23.2323 15.3393
rfingers 7.12502
rthumb 3.21879 -14.6162
lclavicle 4.57205e-015 -1.19271e-014
lhumerus -28.3719 4.86508 80.1182
lradius 38.8091
lwrist 4.9972
lhand -15.5386 25.9267
lfingers 7.12502
lthumb 10.6452 55.637
rfemur -12.7187 -7.60409 27.9056
rtibia 34.0644
rfoot -22.2917 -0.504916
rtoes 12.4776
lfemur -5.64483 -2.69246 -15.1275
ltibia 29.7349
lfoot -21.1306 -6.08909
ltoes -6.56997
3981
root 30.3619 17.5042 -10.5009 1802.05 1.23812 356.336
lowerback 4.89314 -1.74304 -0.319346
upperback 1.608 -2.28355 4.16635
thorax -0.903104 -1.15358 4.60577
lowerneck -14.4849 -2.87765 -10.2034
upperneck 36.0053 -2.97278 4.79879
head 15.2783 -2.01961 3.32323
rclavicle -2.98177e-015 -3.10104e-014
rhumerus -38.4813 -26.322 -69.4645
rradius 22.4807
rwrist -6.49491
rhand -23.1935 15.4238
rfingers 7.12502
rthumb 3.25627 -14.5311
lclavicle -2.98177e-015 -3.10104e-014
lhumerus -28.3247 4.68127 80.5921
lradius 38.5587
lwrist 4.29153
lhand -15.5897 24.6335
lfingers 7.12502
lthumb 10.596 54.3464
rfemur -12.399 -7.58686 27.9869
rtibia 33.7017
rfoot -22.2141 -0.635774
rtoes 11.9427
lfemur -6.02115 -2.438 -15.0497
ltibia 30.6117
lfoot -20.7675 -6.33453
ltoes -5.98324
3982
root 30.3524 17.5058 -10.4687 1801.93 1.22785 356.208
lowerback 4.98394 -1.7761 -0.171546
upperback 1.69096 -2.32067 4.22226
thorax -0.868828 -1.17341 4.58398
lowerneck -14.4373 -2.83781 -10.0907
upperneck 35.9911 -2.89458 4.63913
head 15.2468 -1.99277 3.24752
rclavicle 7.15625e-015 4.77083e-015
rhumerus -38.12 -25.7125 -69.9726
rradius 22.79
rwrist -7.09438
rhand -23.4124 15.1277
rfingers 7.12502
rthumb 3.04488 -14.8303
lclavicle 7.15625e-015 4.77083e-015
lhumerus -28.3065 4.60485 81.027
lradius 38.4086
lwrist 3.33252
lhand -14.4741 25.4644
lfingers 7.12502
lthumb 11.6719 55.1193
rfemur -11.9246 -7.61314 28.1583
rtibia 33.2824
rfoot -22.1907 -0.680785
rtoes 11.6846
lfemur -6.31383 -2.51246 -14.8999
ltibia 31.6373
lfoot -20.4724 -6.33371
ltoes -5.94592
